<?xml version="1.0" encoding="UTF-8"?>
<svg width="24px" height="24px" viewBox="0 0 24 24" version="1.1" xmlns="http://www.w3.org/2000/svg" xmlns:xlink="http://www.w3.org/1999/xlink">
    <title>6C19EC56-6F48-4707-991A-62676BE04EB7</title>
    <g id="OPGGDesignGuide" stroke="none" stroke-width="1" fill="none" fill-rule="evenodd">
        <g id="GUIDE_03Icon" transform="translate(-288.000000, -636.000000)" fill="#fff" fill-rule="nonzero">
            <g id="01-Icon-/-icon_game" transform="translate(288.000000, 636.000000)">
                <path d="M15.6186528,5 C15.8288805,5 16.0365959,5.01310201 16.2409243,5.03861005 L16.3316828,5.02589213 L16.3316828,5.02589213 C16.4696406,5.0086474 16.6085374,5 16.7475688,5 C18.9174343,5 20.7477346,6.61575649 21.0168733,8.76886609 L21.9737548,16.4239188 C22.2034423,18.2614188 20.9000528,19.9372053 19.0625529,20.1668928 C18.9245951,20.1841375 18.7856983,20.1927849 18.6466669,20.1927849 C16.7992944,20.1927849 15.1980531,19.0216169 14.5968063,17.3447781 L9.40284067,17.3447781 C8.80159383,19.0216169 7.20035255,20.1927849 5.35298009,20.1927849 C3.50118032,20.1927849 2,18.6916046 2,16.8398048 C2,16.7007734 2.0086474,16.5618766 2.02589213,16.4239188 L2.98277372,8.76886609 C3.25191242,6.61575649 5.08221264,5 7.2520782,5 C7.42581447,5 7.59646451,5.01321374 7.76307815,5.03869106 C7.96561407,5.01294085 8.17206345,5 8.38099414,5 L15.6186528,5 Z M8.20162726,9.27297075 L7.2520782,9.27297075 L7.252,11.172 L5.35298009,11.1720689 L5.35298009,12.1216179 L7.252,12.121 L7.2520782,14.020716 L8.20162726,14.020716 L8.201,12.121 L10.1007254,12.1216179 L10.1007254,11.1720689 L8.201,11.172 L8.20162726,9.27297075 Z M15.7980197,9.74774528 C14.7491768,9.74774528 13.8989216,10.5980005 13.8989216,11.6468434 C13.8989216,12.6956863 14.7491768,13.5459415 15.7980197,13.5459415 C16.8468626,13.5459415 17.6971178,12.6956863 17.6971178,11.6468434 C17.6971178,10.5980005 16.8468626,9.74774528 15.7980197,9.74774528 Z" id="Combined-Shape"></path>
            </g>
        </g>
    </g>
</svg>