<svg xmlns="http://www.w3.org/2000/svg" width="20" height="20" viewBox="0 0 20 20">
    <g fill="none" fill-rule="evenodd">
        <g fill="#FFF" fill-rule="nonzero">
            <g>
                <g>
                    <g>
                        <g>
                            <path d="M17.657 10.21c0-1.776.699-10.157-7.621-10.207L9.963 0c-8.32.053-7.621 8.434-7.621 10.21 0 1.782.296 3.527-.334 4.01-.631.483-.409 1.188.853 2.747 1.262 1.56 3.528 2.45 3.528 2.45V11.47c-.413-.136-.817-.38-1.16-.733-.951-.98-1.08-2.393-.29-3.162.789-.768 2.145-.539 3.152.38.4.366.678.923.803 1.354.174.546.195 1.128.195 1.839 0 1.197.014 2.886.014 2.886 0 1.087 1.792 1.087 1.792 0 0 0 .015-1.689.015-2.886 0-.71.02-1.293.195-1.839.125-.43.403-.988.804-1.353 1.006-.92 2.362-1.149 3.15-.38.791.768.661 2.182-.288 3.16-.344.354-.748.598-1.16.734v7.947s2.265-.89 3.527-2.45 1.484-2.264.854-2.747c-.631-.483-.335-2.228-.335-4.01z" transform="translate(-460 -267) translate(420 205) translate(8 52) translate(32 10)"/>
                        </g>
                    </g>
                </g>
            </g>
        </g>
    </g>
</svg>
