<?xml version="1.0" encoding="UTF-8"?>
<svg width="24px" height="24px" viewBox="0 0 24 24" version="1.1" xmlns="http://www.w3.org/2000/svg" xmlns:xlink="http://www.w3.org/1999/xlink">
    <title>EA864B13-3CD4-451D-8951-93FDCA2B269D</title>
    <g id="OPGGDesignGuide" stroke="none" stroke-width="1" fill="none" fill-rule="evenodd">
        <g id="GUIDE_03Icon" transform="translate(-992.000000, -292.000000)">
            <g id="01-Icon-/-00-logo-/-icon_logo_facebook" transform="translate(992.000000, 292.000000)">
                <path d="M18.28125,1.42108547e-15 C21.75,1.42108547e-15 24,2.25 24,5.71875 L24,18.28125 C24,21.75 21.75,24 18.28125,24 L5.71875,24 C2.25,24 0,21.75 0,18.28125 L0,5.71875 C0,2.25 2.25,1.42108547e-15 5.71875,1.42108547e-15 L18.28125,1.42108547e-15 Z" id="Background" fill="#385084"></path>
                <path d="M16.559625,24 L16.559625,14.5768895 L19.6792572,14.5768895 L20.1463208,10.9044702 L16.559625,10.9044702 L16.559625,8.55979277 C16.559625,7.4965417 16.8507979,6.77199563 18.3546815,6.77199563 L20.2727535,6.7710839 L20.2727535,3.4865115 C19.9408452,3.4418371 18.8024115,3.3418211 17.4778357,3.3418211 C14.7124128,3.3418211 12.8191597,5.0532159 12.8191597,8.19619773 L12.8191597,10.9044702 L9.69152433,10.9044702 L9.69152433,14.5768895 L12.8191597,14.5768895 L12.8191597,24 L16.559625,24 L16.559625,24 Z" id="facebook-path" fill="#FFFFFF"></path>
            </g>
        </g>
    </g>
</svg>