<?xml version="1.0" encoding="UTF-8"?>
<svg width="24px" height="24px" viewBox="0 0 24 24" version="1.1" xmlns="http://www.w3.org/2000/svg" xmlns:xlink="http://www.w3.org/1999/xlink">
    <title>D4688B2A-3ACC-4D9B-8D99-58CBA574209B</title>
    <g id="OPGGDesignGuide" stroke="none" stroke-width="1" fill="none" fill-rule="evenodd">
        <g id="GUIDE_03Icon" transform="translate(-992.000000, -420.000000)">
            <g id="01-Icon-/-00-logo-/-icon_logo_twitter" transform="translate(992.000000, 420.000000)">
                <path d="M18.28125,1.42108547e-15 C21.75,1.42108547e-15 24,2.25 24,5.71875 L24,18.28125 C24,21.75 21.75,24 18.28125,24 L5.71875,24 C2.25,24 0,21.75 0,18.28125 L0,5.71875 C0,2.25 2.25,1.42108547e-15 5.71875,1.42108547e-15 L18.28125,1.42108547e-15 Z" id="Background" fill="#54ACEE"></path>
                <path d="M19.5116279,7.42049258 C18.9781533,7.66178748 18.4040275,7.82454913 17.8016224,7.89738722 C18.4166942,7.5227057 18.8883081,6.92921017 19.1107119,6.22121197 C18.5354077,6.56861668 17.8985375,6.8207024 17.2201322,6.95678673 C16.6772312,6.36808713 15.9033838,6 15.0470555,6 C13.4030347,6 12.0700847,7.35634711 12.0700847,9.0295249 C12.0700847,9.26662336 12.0963018,9.49772693 12.1472632,9.71983814 C9.67283668,9.59334565 7.47884516,8.38747066 6.01039084,6.55452865 C5.75411094,7.00174851 5.6074128,7.52210621 5.6074128,8.07783384 C5.6074128,9.12874058 6.13293386,10.0561523 6.93182014,10.5992906 C6.44400463,10.5834041 5.98476285,10.44702 5.58325768,10.2201129 C5.58296311,10.2327022 5.58296311,10.2455913 5.58296311,10.2584803 C5.58296311,11.7260329 6.60926097,12.9501923 7.97137386,13.2289554 C7.72157461,13.2978968 7.45851951,13.3350652 7.18692173,13.3350652 C6.99485911,13.3350652 6.80839339,13.3161813 6.62664087,13.2805116 C7.00575837,14.4839886 8.10511073,15.3601439 9.40771956,15.3844232 C8.38878607,16.1970325 7.10532458,16.6814208 5.71021933,16.6814208 C5.47014104,16.6814208 5.2330085,16.667033 5,16.638857 C6.31792671,17.498826 7.88270691,18 9.56384409,18 C15.0402802,18 18.0346309,13.3839237 18.0346309,9.38052655 C18.0346309,9.24923815 18.0319798,9.11824948 18.0263828,8.98816007 C18.6078731,8.56192237 19.1127739,8.02807613 19.5116279,7.42049258 L19.5116279,7.42049258 L19.5116279,7.42049258 Z" id="Shape" fill="#FFFFFF"></path>
            </g>
        </g>
    </g>
</svg>