<svg width="24" height="24" viewBox="0 0 24 24" xmlns="http://www.w3.org/2000/svg">
    <g fill="none" fill-rule="evenodd">
        <path d="M18.281 0C21.75 0 24 2.25 24 5.719V18.28C24 21.75 21.75 24 18.281 24H5.72C2.25 24 0 21.75 0 18.281V5.72C0 2.25 2.25 0 5.719 0H18.28z" fill="#1E2022"/>
        <path d="M20 12.816c.012 0-3.869-2.328-3.88-2.396-.088-.495-.199-1.312-.734-1.734-.46-.36-3.571-1.848-3.577-1.864A22.03 22.03 0 0 1 10.29 4a3.5 3.5 0 0 0-.989 1.23 3.644 3.644 0 0 0-.363 1.558 7.991 7.991 0 0 0-4.135 1.947C7.844 8.01 8.72 8.68 8.72 8.68a8.932 8.932 0 0 0-2.84 1.05c-1.295.74-1.88 1.63-1.88 1.63s2.944-.875 5.203-.024a4.959 4.959 0 0 0-2.797 1.423c4.682.603 6.991 4.829 7.963 8.243.357-6.073-2.55-8.38-2.55-8.38.844.063 1.906.746 2.585 1.762 2.071-.243 3.224.417 3.215.417-.023 0 1.12-.365 1.925-.751-.069-.109-.36-.486-.526-.696.023.001.66-.038.982-.537zm-6.468-2.688c.046-.012 1.06-.309 1.35-.194.264.103.269.882.269.882s-.601.088-1.619-.688z" fill="#FFF" fill-rule="nonzero"/>
    </g>
</svg>
