<?xml version="1.0" encoding="UTF-8"?>
<svg width="24px" height="24px" viewBox="0 0 24 24" version="1.1" xmlns="http://www.w3.org/2000/svg" xmlns:xlink="http://www.w3.org/1999/xlink">
    <title>01 Icon / 00 logo / img_navi_bs</title>
    <g id="01-Icon-/-00-logo-/-img_navi_bs" stroke="none" stroke-width="1" fill="none" fill-rule="evenodd">
        <rect id="Rectangle" x="0" y="0" width="24" height="24"></rect>
        <path d="M20.5595548,7.04475491 L21,7.511169 L21,11.3429631 L19.9784513,12.4197648 L20.8735496,13.3645907 L20.8735496,16.8244534 L18.5050912,19.3259926 L18.5050912,13.7110269 L18.0007104,13.178625 L16.7646223,13.178625 L18.5292446,11.3159681 L18.5292446,8.70794854 L15.5043808,8.70794854 L15.5043808,12.1738101 L16.6950036,12.1738101 L15.5171679,13.4185808 L15.5171679,16.5710001 L15.9078854,16.9834241 L15.9078854,18.3151788 L13.1089273,21.2681348 L13.1089273,8.94790433 L14.9502723,7.04475491 L20.5595548,7.04475491 Z M6.15131423,13.178625 L6.2024627,15.0952719 L12.2266161,15.0952719 L12.2266161,16.5844976 L3,16.5844976 L6.15131423,13.178625 Z M11.9367748,3 L9.60525693,5.46104665 L6.2024627,5.46104665 L6.2024627,9.25384798 L9.44186597,9.25384798 L8.19299076,10.5706054 L6.16410135,10.5706054 L6.16410135,12.0208383 L3.25147999,15.0952719 L3.25147999,9.39932118 L3.65498461,8.78743389 L3.65498461,3.78435551 L4.58844423,3 L11.9367748,3 Z" id="Combined-Shape" fill="#FFFFFF"></path>
    </g>
</svg>