<?xml version="1.0" encoding="UTF-8"?>
<svg width="390px" height="104px" viewBox="0 0 390 104" version="1.1" xmlns="http://www.w3.org/2000/svg" xmlns:xlink="http://www.w3.org/1999/xlink">
    <title>Group 2</title>
    <g id="98_RESOURCE" stroke="none" stroke-width="1" fill="none" fill-rule="evenodd">
        <g id="98-Resource_Open-Graph_800" transform="translate(-205.000000, -158.000000)">
            <g id="Group-2" transform="translate(205.000000, 158.000000)">
                <polygon id="Fill-1" fill="#202D37" points="23.0957514 44.7075699 0.00169269915 50.598163 0.00169269915 86.5482718 23.0957514 104 80.5346759 89.35251 57.437796 71.9007818 23.0957514 80.6576787 23.0957514 68.0498912 80.5346759 53.4024012 57.437796 35.950673"></polygon>
                <polygon id="Fill-2" fill="#FF4438" points="57.4389245 0 0 14.64749 23.0968799 32.0992182 80.5329832 17.4517282"></polygon>
                <polygon id="Fill-3" fill="#202D37" points="112.915446 81.1663348 151.774177 81.1663348 151.774177 72.0285806 122.46227 72.0285806 122.46227 56.3316171 149.331047 56.3316171 149.331047 47.1938629 122.46227 47.1938629 122.46227 31.9003261 151.774177 31.9003261 151.774177 22.765393 112.915446 22.765393"></polygon>
                <path d="M232.398848,60.1094395 C232.398848,63.8615893 231.208316,66.9535864 228.855464,69.3036171 C226.508255,71.6536477 223.416258,72.8441794 219.664108,72.8441794 C215.909137,72.8441794 212.819961,71.6536477 210.46993,69.3007959 C208.1199,66.9535864 206.929368,63.8615893 206.929368,60.1094395 C206.929368,56.3572897 208.1199,53.2652926 210.46993,50.9180831 L210.472751,50.915262 C212.819961,48.5652313 215.909137,47.3746996 219.664108,47.3746996 C223.416258,47.3746996 226.508255,48.5652313 228.858285,50.9180831 C231.208316,53.2652926 232.398848,56.3572897 232.398848,60.1094395 M220.888493,38.2369453 C215.443645,38.2369453 210.752047,39.9917101 206.929368,43.4617434 L206.929368,39.0494409 L197.385366,39.0494409 L197.385366,97.4503828 L206.929368,97.4503828 L206.929368,76.7571356 C210.754868,80.2243477 215.446466,81.9819337 220.888493,81.9819337 C226.866543,81.9819337 231.910786,79.8829867 235.882987,75.7415162 C239.903147,71.5520858 241.94285,66.2906126 241.94285,60.1094395 C241.94285,53.9282664 239.903147,48.6639721 235.882987,44.4745417 C231.910786,40.3358923 226.863721,38.2369453 220.888493,38.2369453" id="Fill-4" fill="#202D37"></path>
                <path d="M280.928814,60.1094395 C280.928814,63.7515638 279.735462,66.7871377 277.385431,69.1371683 L277.385431,69.1399895 C275.038221,71.4900201 272.002648,72.6805519 268.357702,72.6805519 C264.712757,72.6805519 261.674362,71.4900201 259.327152,69.1428106 C256.977121,66.7899588 255.783769,63.7487427 255.783769,60.1094395 C255.783769,56.464494 256.9743,53.4289202 259.327152,51.0788895 C261.674362,48.7288589 264.712757,47.535506 268.357702,47.535506 C271.999826,47.535506 275.038221,48.7288589 277.388252,51.0817107 C279.738283,53.4289202 280.928814,56.464494 280.928814,60.1094395 M268.357702,38.2369453 C262.007259,38.2369453 256.689363,40.3302499 252.559177,44.4576147 C248.366925,48.5398408 246.242588,53.8069563 246.242588,60.1094395 C246.242588,66.4119227 248.366925,71.676217 252.550713,75.7528008 C256.686541,79.8858079 262.007259,81.9819337 268.357702,81.9819337 C274.705324,81.9819337 280.02322,79.8858079 284.153406,75.7584432 C288.348479,71.6790382 290.475638,66.4119227 290.475638,60.1094395 C290.475638,53.8097775 288.348479,48.542662 284.159049,44.463257 C280.020399,40.3330711 274.705324,38.2369453 268.357702,38.2369453" id="Fill-6" fill="#202D37"></path>
                <path d="M306.757429,43.8575529 L306.757429,38.2377917 L297.213427,38.2377917 L297.213427,81.1674633 L306.757429,81.1674633 L306.757429,59.2949691 C306.757429,51.5480493 310.791695,48.213432 319.085921,48.213432 L319.78557,48.213432 L319.78557,39.0756778 L319.085921,39.0756778 C313.5649,39.0756778 309.42343,40.1279724 306.757429,43.8575529" id="Fill-8" fill="#202D37"></path>
                <polygon id="Fill-10" fill="#202D37" points="342.465481 48.1003033 342.448554 48.1059456 352.130794 48.1059456 352.130794 39.0387205 342.43727 39.0387205 342.43727 27.4945123 332.97226 29.9263567 332.97226 39.0387205 324.08559 39.0387205 324.08559 48.1059456 332.97226 48.1059456 332.97226 48.1003033"></polygon>
                <polygon id="Fill-12" fill="#202D37" points="332.973671 81.1663348 342.43868 81.1663348 342.43868 49.6652036 332.973671 52.0801211"></polygon>
                <path d="M187.882835,60.5613902 C187.296032,59.9125222 186.765653,59.4244606 186.204242,59.0294975 C183.605948,57.1816342 179.424981,55.9572485 173.77983,55.3873731 C173.729049,55.384552 173.681089,55.3760885 173.630308,55.367625 C173.590812,55.3619826 173.551315,55.3563403 173.506177,55.3535191 C169.150298,54.9980523 167.031602,53.6918528 167.031602,51.3615703 C167.031602,49.6519442 167.657901,47.3752638 173.057611,47.3752638 C177.723819,47.3752638 179.898937,49.1610614 179.898937,52.9893827 L179.898937,53.4069151 L188.861779,51.1189501 C188.511955,47.8266502 187.281927,45.1070469 185.214013,43.0391328 C182.361814,40.1333326 178.273946,38.6606843 173.057611,38.6606843 C167.954124,38.6606843 163.99885,40.0515188 161.307458,42.7993338 C159.053347,45.1098681 157.913596,47.993099 157.913596,51.3615703 C157.913596,54.2053049 158.714807,56.6174012 160.300302,58.52733 C162.675723,61.4020974 166.845406,63.1286506 172.69086,63.6618508 C173.046327,63.6900624 173.370761,63.7323799 173.700837,63.7746974 L173.963205,63.8085514 C178.982058,64.4404924 181.52675,66.0090603 181.52675,68.4662952 C181.52675,71.6965294 179.021555,73.2679185 173.872928,73.2679185 C172.975798,73.2679185 172.104058,73.1889258 171.283099,73.0309406 C170.242089,72.8278167 169.302641,72.5118462 168.487324,72.1055984 C166.413767,70.9940593 165.40379,69.2731485 165.40379,66.8356617 L165.40379,66.4124869 L156.44659,68.6976308 C156.816163,72.218445 158.181607,75.1327087 160.500605,77.3614292 C163.620814,80.4280359 168.120572,81.9824979 173.872928,81.9824979 C179.512438,81.9824979 183.871138,80.5098497 186.83054,77.6096918 C189.361125,75.1355299 190.644756,72.0576386 190.644756,68.4662952 C190.644756,65.2473457 189.716592,62.589808 187.882835,60.5642113 L187.882835,60.5613902 Z" id="Fill-14" fill="#202D37"></path>
                <path d="M386.737181,60.5642113 L386.737181,60.5613902 C386.150379,59.9125222 385.62,59.4244606 385.058588,59.0294975 C382.460295,57.1816342 378.279328,55.9572485 372.634176,55.3873731 C372.583395,55.384552 372.535435,55.3760885 372.484654,55.367625 C372.445158,55.3619826 372.405662,55.3563403 372.360523,55.3535191 C368.004644,54.9980523 365.885949,53.6918528 365.885949,51.3615703 C365.885949,49.6519442 366.512248,47.3752638 371.911958,47.3752638 C376.578165,47.3752638 378.753284,49.1610614 378.753284,52.9893827 L378.753284,53.4069151 L387.716126,51.1189501 C387.366301,47.8266502 386.136273,45.1070469 384.068359,43.0391328 C381.216161,40.1333326 377.128292,38.6606843 371.911958,38.6606843 C366.80847,38.6606843 362.853196,40.0515188 360.161805,42.7993338 C357.907694,45.1098681 356.767943,47.993099 356.767943,51.3615703 C356.767943,54.2053049 357.569154,56.6174012 359.154649,58.52733 C361.53007,61.4020974 365.699752,63.1286506 371.545206,63.6618508 C371.89221,63.6872413 372.213823,63.7295588 372.535435,63.7746974 L372.817552,63.8085514 C377.836405,64.4404924 380.381096,66.0090603 380.381096,68.4662952 C380.381096,71.6965294 377.875901,73.2679185 372.727275,73.2679185 C371.830144,73.2679185 370.958404,73.1889258 370.137445,73.0309406 C369.096435,72.8278167 368.156987,72.5118462 367.34167,72.1055984 C365.268114,70.9940593 364.258137,69.2731485 364.258137,66.8356617 L364.258137,66.4124869 L355.300937,68.6976308 C355.67051,72.218445 357.035954,75.1327087 359.354951,77.3614292 C362.47516,80.4280359 366.974919,81.9824979 372.727275,81.9824979 C378.366784,81.9824979 382.725484,80.5098497 385.684887,77.6096918 C388.215472,75.1355299 389.499102,72.0576386 389.499102,68.4662952 C389.499102,65.2473457 388.570939,62.589808 386.737181,60.5642113" id="Fill-16" fill="#202D37"></path>
            </g>
        </g>
    </g>
</svg>