<svg
    viewBox="0 0 40 40"
    xmlns="http://www.w3.org/2000/svg"
>
    <path
    d="M20.02 1.93c.03.007.053.03.06.06l4.043 16.168a.083.083 0 0 0 .149.028l3.818-5.346a.083.083 0 0 1 .15.067l-1.105 4.777.055.046c.751.667 1.41 1.437 1.952 2.288l-1.387.925a9.204 9.204 0 0 0-1.054-1.365l-.828 3.583a.083.083 0 0 0 .119.093l4.579-2.29a.083.083 0 0 1 .108.12l-.556.896.067.173c.417 1.147.643 2.387.643 3.68 0 5.624-4.285 10.248-9.77 10.782l-.992 1.604a.083.083 0 0 1-.115.027l-.027-.027-.993-1.604c-5.484-.534-9.77-5.158-9.77-10.782 0-1.358.25-2.658.707-3.856l-.552-.894a.083.083 0 0 1 .108-.118l4.58 2.29a.083.083 0 0 0 .118-.094l-.828-3.583c-.429.46-.811.963-1.139 1.503l-1.495-.748a10.885 10.885 0 0 1 2.197-2.65l-1.101-4.776a.083.083 0 0 1 .149-.067l3.818 5.346a.083.083 0 0 0 .15-.028L19.918 1.99a.083.083 0 0 1 .101-.06zm-9.187 23.903c0 4.292 2.95 7.895 6.932 8.893l-6.72-10.859a9.2 9.2 0 0 0-.212 1.966zm18.122-1.966-6.72 10.859c3.982-.998 6.932-4.6 6.932-8.893a9.2 9.2 0 0 0-.212-1.966zM20.02 12.763a.083.083 0 0 0-.08.022l-.02.038-3.225 12.896a.083.083 0 0 1-.085.063l-.042-.014-2.073-1.382a.083.083 0 0 0-.13.072l.014.042 5.55 8.723a.083.083 0 0 0 .11.03l.031-.03 5.551-8.723a.083.083 0 0 0-.075-.128l-.041.014-2.073 1.382a.083.083 0 0 1-.106-.011l-.021-.038-3.224-12.896a.083.083 0 0 0-.06-.06zm-.044 9.947c.03-.009.06 0 .08.019l.024.037.913 3.043.003.024-.003.024-.913 3.044a.083.083 0 0 1-.137.037l-.023-.037-.913-3.044-.003-.024.003-.024.913-3.043a.083.083 0 0 1 .056-.056z"
    fill="#202D37"
    fillRule="nonzero"
    />
</svg>