<svg width="24" height="24" viewBox="0 0 24 24" xmlns="http://www.w3.org/2000/svg">
    <g fill="none" fill-rule="evenodd">
        <path fill="#BC1F34" d="M0 21h24V3H0z"/>
        <path fill="#2B3379" d="M0 11.244h13V3.001H0z"/>
        <g fill="#FFF">
            <path d="m7.98 7.588 1.261-.467-1.26-.47.856-1.033-1.321.234.224-1.327-1.032.86-.467-1.261-.466 1.26-1.035-.859.228 1.324a1.799 1.799 0 1 1 1.273 3.073A1.799 1.799 0 0 1 4.967 5.85l-1.324-.233.859 1.034-1.26.469 1.26.467-.86 1.035 1.327-.226-.229 1.321 1.035-.858.466 1.26.467-1.26 1.032.858-.224-1.32 1.32.225-.856-1.035z"/>
            <path d="M7.74 7.121a1.501 1.501 0 1 1-3 0c0-.827.671-1.503 1.5-1.503.83 0 1.5.676 1.5 1.503"/>
        </g>
    </g>
</svg>
