<svg width="24" height="24" viewBox="0 0 24 24" xmlns="http://www.w3.org/2000/svg">
    <g fill="none" fill-rule="evenodd">
        <path fill="#D91D42" d="M0 12h24V3H0z"/>
        <path fill="#FFF" d="M0 21h24v-9H0zM9.258 7.499a3.385 3.385 0 1 1-6.77.003 3.385 3.385 0 0 1 6.77-.003"/>
        <path d="M10.322 7.499c0 1.77-1.43 3.198-3.198 3.198a3.197 3.197 0 1 1 0-6.394A3.197 3.197 0 0 1 10.322 7.5" fill="#D91D42"/>
        <path fill="#FFF" d="m6.293 7.581-.459-.352-.462.352.179-.567-.461-.352.569.003.175-.57.177.57.567-.003-.462.352zM9.9 7.581l-.46-.352-.459.352.177-.567-.462-.352.57.003.174-.57.175.57.57-.003-.461.352zM8.097 6.245 7.64 5.89l-.46.355.176-.57-.46-.349h.569l.175-.57.176.57.568-.003-.461.353zM6.97 9.724l-.462-.35-.46.35.178-.57-.461-.349h.569l.174-.57.175.57h.569l-.46.349zM9.226 9.724l-.461-.35-.459.35.177-.57-.46-.349h.57l.172-.57.175.57h.568l-.46.349z"/>
    </g>
</svg>
