<svg width="24" height="24" viewBox="0 0 24 24" xmlns="http://www.w3.org/2000/svg">
    <g fill="none" fill-rule="evenodd">
        <path fill="#2F3E98" d="M0 12h24V3H0z"/>
        <path fill="#BC1F34" d="M0 21h24v-9H0z"/>
        <path fill="#FFF" d="M0 3v18l15.668-9z"/>
        <path fill="#F3D02F" d="m1.097 18.138-.802.082.7.4-.17.786.598-.543.694.406-.333-.732.601-.54-.801.09-.323-.735zM3.585 11.052l-1.017-.575-.041-.333 1.15.782-.092.126zm.187-.22-1.23-.947-.048-.553.5-.018 1.02 1.25-.242.269zm.457-.46-.587-1.008-.34-.04.805 1.142.122-.094zM4.745 10.182 4.44 9.059l.21-.269.246 1.374-.152.018zm.287-.018-.19-1.544.364-.42.361.346-.174 1.601-.361.017zm.646 0 .308-1.124-.21-.265-.25 1.372.152.017zM6.194 10.413l.598-1 .337-.034-.815 1.128-.12-.094zm.212.19.982-1.208.55-.027.004.5-1.27.986-.266-.251zm.449.47 1.02-.563.048-.335-1.16.773.092.125zM7.018 11.547l1.126-.305.265.207-1.371.252-.02-.154zm.02.288 1.545-.19.42.363-.346.363-1.601-.178-.018-.358zm-.002.647 1.126.308.264-.211-1.37-.251-.02.154zM6.82 12.944l1.015.569.046.338-1.154-.78.093-.127zm-.185.22 1.236.945.045.55-.497.02-1.026-1.245.242-.27zm-.455.462.592 1.003.335.04-.808-1.14-.12.097zM5.67 13.817l.308 1.124-.206.266-.255-1.371.152-.019zm-.288.019.2 1.543-.359.424-.365-.345.161-1.601.363-.021zm-.648.004-.297 1.127.212.265.237-1.375-.152-.017zM4.233 13.606l-.582 1.012-.338.036.799-1.14.121.092zm-.214-.187-.964 1.221-.55.04-.014-.5 1.259-1.005.27.244zm-.458-.463-1.01.577-.045.338 1.148-.793-.093-.122zM3.385 12.47l-1.124.31-.267-.209 1.372-.255.02.154zm-.019-.286-1.543.2-.422-.358.341-.367 1.602.161.022.364zm-.005-.648-1.125-.297-.268.21 1.376.238.017-.151z"/>
        <g fill="#F3D02F">
            <path d="M5.2 10.104c1.047 0 1.899.847 1.899 1.897A1.903 1.903 0 0 1 5.2 13.903a1.902 1.902 0 0 1-1.897-1.902c0-1.05.849-1.897 1.897-1.897M11.733 12.654l.478-.651-.48-.65.765.252.47-.654-.002.805.768.245-.768.244.004.808-.468-.653zM2.117 4.534l-.695.406-.597-.543.17.79-.7.4.803.078.163.79.323-.737.801.087-.602-.535z"/>
        </g>
    </g>
</svg>
